<svg width="130" height="143" viewBox="0 0 130 143" fill="none" xmlns="http://www.w3.org/2000/svg">
<path d="M130 78.0105C130 113.899 100.901 143 65.0045 143C29.1079 143 0 113.908 0 78.0105C0 63.7498 4.59411 50.5682 12.3818 39.857C24.1927 23.6074 43.3631 13.03 65.0045 13.03C86.6459 13.03 105.816 23.5985 117.618 39.8659C125.415 50.5771 130 63.7587 130 78.0105Z" fill="url(#paint0_linear_4_3)"/>
<path d="M117.618 39.8659C105.816 23.5985 86.6459 13.03 65.0045 13.03C43.3631 13.03 24.1927 23.6074 12.3818 39.857C9.00981 28.1915 9.54505 15.6164 19.1615 6.91188C31.8466 -4.58413 47.8769 0.624299 57.4576 5.61869C62.2034 8.08021 67.8145 8.08912 72.5424 5.61869C82.132 0.624299 98.1534 -4.59305 110.839 6.90296C120.455 15.6164 120.999 28.2005 117.618 39.857V39.8659Z" fill="url(#paint1_linear_4_3)"/>
<path d="M32.132 89.6849C31.3292 82.9782 29.6075 76.4409 27.1008 70.2068C27.1008 70.2068 50.6869 71.4019 62.6851 84.5211C59.3042 85.2791 56.2801 87.7317 55.2453 91.861C52.9973 100.985 52.1409 111.277 51.8198 117.93C51.6146 122.291 46.6815 124.922 43.0598 122.443C36.2444 117.76 34.157 106.603 32.1945 90.3449L32.1231 89.6849H32.132Z" fill="url(#paint2_linear_4_3)"/>
<path d="M65.0045 13.03C43.3631 13.03 24.1927 23.6074 12.3818 39.857C14.1213 45.8592 16.8956 51.6206 20.0089 56.4723C22.8011 60.8334 25.1829 65.4265 27.1008 70.1979C69.8305 68.0307 75.0491 90.5589 75.6735 95.5623C75.7806 96.4274 75.9144 97.2835 76.066 98.1397C77.3506 105.426 77.9215 112.766 78.1713 117.912C78.3854 122.273 83.3185 124.904 86.9313 122.425C93.7556 117.743 95.8341 106.586 97.7966 90.3271L97.8769 89.6671C99.2953 77.8143 103.559 66.5235 109.991 56.4633C113.104 51.6116 115.879 45.8503 117.618 39.857C105.816 23.5985 86.6369 13.0211 65.0045 13.0211V13.03ZM80.6155 46.3051H68.8492V58.0687H61.1597V46.3051H49.3934V38.6173H61.1597V26.8537H68.8492V38.6173H80.6155V46.3051Z" fill="url(#paint3_linear_4_3)"/>
<defs>
<linearGradient id="paint0_linear_4_3" x1="0" y1="78.0195" x2="130" y2="78.0195" gradientUnits="userSpaceOnUse">
<stop offset="0.19" stop-color="#00CFB4"/>
<stop offset="0.94" stop-color="#00A6B5"/>
</linearGradient>
<linearGradient id="paint1_linear_4_3" x1="10.4996" y1="19.933" x2="119.5" y2="19.933" gradientUnits="userSpaceOnUse">
<stop offset="0.19" stop-color="#00CFB4"/>
<stop offset="0.94" stop-color="#00A6B5"/>
</linearGradient>
<linearGradient id="paint2_linear_4_3" x1="44.8974" y1="123.397" x2="44.8974" y2="70.2068" gradientUnits="userSpaceOnUse">
<stop offset="0.44" stop-color="white"/>
<stop offset="0.76" stop-color="#E4F4FE"/>
</linearGradient>
<linearGradient id="paint3_linear_4_3" x1="12.3818" y1="68.218" x2="117.618" y2="68.218" gradientUnits="userSpaceOnUse">
<stop offset="0.45" stop-color="white"/>
<stop offset="0.97" stop-color="#E4F4FE"/>
</linearGradient>
</defs>
</svg>
